<?xml version="1.0" encoding="UTF-8"?>
<svg version="1.1" xmlns="http://www.w3.org/2000/svg" width="540" height="540">
<path d="M0 0 C0.9450238 -0.00701431 1.89004761 -0.01402863 2.8637085 -0.02125549 C5.89486512 -0.03865859 8.92582651 -0.04510725 11.95703125 -0.046875 C13.50911789 -0.04788712 13.50911789 -0.04788712 15.09255981 -0.04891968 C29.88626559 -0.03356443 44.21985324 0.2954588 58.76953125 3.203125 C60.14262451 3.46053467 60.14262451 3.46053467 61.54345703 3.72314453 C109.05624953 12.71769957 153.27587666 33.29351921 189.76953125 65.203125 C190.57173096 65.90381104 190.57173096 65.90381104 191.39013672 66.61865234 C194.92551357 69.73433434 198.37150035 72.93817625 201.76953125 76.203125 C202.30707031 76.71875 202.84460938 77.234375 203.3984375 77.765625 C210.73710617 84.84888757 217.49731939 92.14208738 223.76953125 100.203125 C224.54554688 101.1621875 225.3215625 102.12125 226.12109375 103.109375 C262.94916212 149.4075181 283.21395148 208.2892005 283.08520508 267.30273438 C283.08205681 270.30375976 283.10556534 273.30378372 283.13085938 276.3046875 C283.19176763 294.66960577 281.20110374 312.7332417 277.08203125 330.640625 C276.82639404 331.76130371 276.57075684 332.88198242 276.30737305 334.03662109 C266.93630205 373.70516067 248.48134441 410.62412095 222.76953125 442.203125 C222.33237793 442.74324219 221.89522461 443.28335937 221.44482422 443.83984375 C209.96792182 457.91227285 197.20446868 471.15337201 182.76953125 482.203125 C181.30386719 483.37681641 181.30386719 483.37681641 179.80859375 484.57421875 C146.6334931 510.99075563 106.3792514 529.23370729 64.76953125 537.203125 C62.93684692 537.590448 62.93684692 537.590448 61.06713867 537.9855957 C46.63904963 540.80611104 32.09588328 540.69751194 17.45629883 540.64916992 C14.54877871 540.64000305 11.64206351 540.64686687 8.73461914 540.66967773 C-9.2565054 540.80994326 -26.57244647 540.06368518 -44.23046875 536.203125 C-45.51783936 535.92605713 -46.80520996 535.64898926 -48.1315918 535.36352539 C-51.18969866 534.65085314 -54.20784654 533.86518239 -57.23046875 533.015625 C-58.29821533 532.72010742 -59.36596191 532.42458984 -60.46606445 532.12011719 C-99.30518641 521.0567308 -134.97820726 501.9584853 -165.23046875 475.203125 C-166.06578125 474.47867187 -166.90109375 473.75421875 -167.76171875 473.0078125 C-178.8352414 463.26455069 -189.18838517 452.86658327 -198.23046875 441.203125 C-199.39255859 439.76646484 -199.39255859 439.76646484 -200.578125 438.30078125 C-237.41290823 392.0092074 -257.67488257 333.11411547 -257.54614258 274.10351562 C-257.54299431 271.10249024 -257.56650284 268.10246628 -257.59179688 265.1015625 C-257.65270513 246.73664423 -255.66204124 228.6730083 -251.54296875 210.765625 C-251.28733154 209.64494629 -251.03169434 208.52426758 -250.76831055 207.36962891 C-241.39723955 167.70108933 -222.94228191 130.78212905 -197.23046875 99.203125 C-196.79331543 98.66300781 -196.35616211 98.12289062 -195.90576172 97.56640625 C-184.42885932 83.49397715 -171.66540618 70.25287799 -157.23046875 59.203125 C-155.76480469 58.02943359 -155.76480469 58.02943359 -154.26953125 56.83203125 C-111.4695186 22.75140781 -55.04558732 0.2744671 0 0 Z " fill="#173562" transform="translate(257.23046875,-0.203125)"/>
<path d="M0 0 C0.9450238 -0.00701431 1.89004761 -0.01402863 2.8637085 -0.02125549 C5.89486512 -0.03865859 8.92582651 -0.04510725 11.95703125 -0.046875 C13.50911789 -0.04788712 13.50911789 -0.04788712 15.09255981 -0.04891968 C29.88626559 -0.03356443 44.21985324 0.2954588 58.76953125 3.203125 C60.14262451 3.46053467 60.14262451 3.46053467 61.54345703 3.72314453 C109.05624953 12.71769957 153.27587666 33.29351921 189.76953125 65.203125 C190.57173096 65.90381104 190.57173096 65.90381104 191.39013672 66.61865234 C194.92551357 69.73433434 198.37150035 72.93817625 201.76953125 76.203125 C202.30707031 76.71875 202.84460938 77.234375 203.3984375 77.765625 C210.73710617 84.84888757 217.49731939 92.14208738 223.76953125 100.203125 C224.54554688 101.1621875 225.3215625 102.12125 226.12109375 103.109375 C262.94916212 149.4075181 283.21395148 208.2892005 283.08520508 267.30273438 C283.08205681 270.30375976 283.10556534 273.30378372 283.13085938 276.3046875 C283.19176763 294.66960577 281.20110374 312.7332417 277.08203125 330.640625 C276.82639404 331.76130371 276.57075684 332.88198242 276.30737305 334.03662109 C266.93630205 373.70516067 248.48134441 410.62412095 222.76953125 442.203125 C222.33237793 442.74324219 221.89522461 443.28335937 221.44482422 443.83984375 C209.96792182 457.91227285 197.20446868 471.15337201 182.76953125 482.203125 C181.30386719 483.37681641 181.30386719 483.37681641 179.80859375 484.57421875 C155.51878421 503.91561145 127.62624589 518.41877713 98.26953125 528.328125 C97.11783447 528.7187915 95.9661377 529.10945801 94.77954102 529.51196289 C93.15036743 530.04358032 93.15036743 530.04358032 91.48828125 530.5859375 C90.52857422 530.89934082 89.56886719 531.21274414 88.58007812 531.53564453 C85.55355141 532.25441834 82.86912264 532.32167922 79.76953125 532.203125 C76.34924818 527.28646809 75.03863855 523.60319981 75.33203125 517.5703125 C76.07278211 513.56232127 77.68108689 511.78733355 80.76953125 509.203125 C83.70908331 507.91031197 86.65551964 506.97653965 89.76953125 506.203125 C89.27453125 505.31625 88.77953125 504.429375 88.26953125 503.515625 C86.79435366 500.25794115 86.62783256 498.66883889 86.76953125 495.203125 C85.62291016 495.49316406 85.62291016 495.49316406 84.453125 495.7890625 C66.72532841 500.09834639 49.93398862 500.46043997 31.76953125 500.203125 C33.34230989 497.05756772 35.97083745 496.80207858 39.20703125 495.5859375 C40.57868759 495.06274523 41.95018133 494.53912651 43.3215332 494.01513672 C44.04684235 493.74054626 44.77215149 493.46595581 45.5194397 493.18304443 C78.17551408 480.77541036 108.74259803 464.64559517 137.76953125 445.203125 C136.82746826 445.27644043 135.88540527 445.34975586 134.91479492 445.42529297 C106.28683346 447.36885232 106.28683346 447.36885232 100.515625 442.54296875 C98.08759905 439.70246597 96.41012707 436.50821906 94.80322266 433.14892578 C93.04973808 429.84820021 90.56676332 427.21953216 88.08203125 424.453125 C84.19826964 419.93178145 80.43048829 415.32966758 76.7265625 410.66015625 C73.86823884 407.07156227 70.95688099 403.52719399 68.046875 399.98046875 C66.55652923 398.16291156 65.06941631 396.34269752 63.5859375 394.51953125 C59.57618897 389.59490249 55.51656327 384.72107457 51.39453125 379.890625 C47.59364478 375.4322879 43.92356197 370.89400604 40.33203125 366.265625 C36.05934086 360.76120946 31.60618833 355.4463821 27.04589844 350.17871094 C23.48738396 346.06236271 20.04857945 341.86905401 16.671875 337.6015625 C10.21244037 329.45763464 3.53342637 321.4844349 -3.07666016 313.46264648 C-7.00818308 308.69062399 -10.92810489 303.90935188 -14.83984375 299.12109375 C-17.28149666 296.14084094 -19.73145055 293.16758096 -22.18310547 290.19555664 C-24.58668452 287.28037634 -26.98625022 284.36190408 -29.38574219 281.44335938 C-30.6318722 279.93006014 -31.87997054 278.4183799 -33.12988281 276.90820312 C-34.95945998 274.69758224 -36.78297303 272.48208506 -38.60546875 270.265625 C-39.17104492 269.58540283 -39.73662109 268.90518066 -40.31933594 268.2043457 C-44.23046875 263.43053504 -44.23046875 263.43053504 -44.23046875 261.203125 C-43.30720291 261.19947937 -42.38393707 261.19583374 -41.43269348 261.19207764 C-32.68042677 261.15402153 -23.92852603 261.096971 -15.17651844 261.01922226 C-10.67829358 260.97991492 -6.18025959 260.94764515 -1.68188477 260.93212891 C2.66909532 260.91685095 7.01955008 260.88221172 11.37029457 260.83481598 C13.02019973 260.82011595 14.67017995 260.81209061 16.32015038 260.81124115 C32.12726547 260.79493669 47.05789551 258.0021345 59.1484375 246.97265625 C69.16152823 236.04270419 72.63228781 221.53040631 72.36645508 207.13427734 C72.33191553 205.07121305 72.34593623 203.01240996 72.36523438 200.94921875 C72.35048864 186.93230295 68.24443611 172.9314303 58.58203125 162.390625 C47.11144779 151.8989316 31.20239236 148.09108226 16.07324219 147.99438477 C15.10185806 147.98460098 14.13047394 147.9748172 13.12965393 147.96473694 C9.92108516 147.93486933 6.71255775 147.91342272 3.50390625 147.89453125 C2.40543617 147.88795942 1.30696609 147.8813876 0.17520905 147.87461662 C-5.63822645 147.8420626 -11.4516439 147.81760074 -17.26513672 147.7980957 C-22.06846816 147.78027998 -26.87121287 147.74544862 -31.67431641 147.69555664 C-37.48325425 147.63529524 -43.29164796 147.60461221 -49.10088348 147.59492302 C-51.30963223 147.58637902 -53.51836684 147.56758717 -55.72693634 147.5381794 C-58.82413248 147.49915584 -61.91921684 147.4982446 -65.01660156 147.50610352 C-65.92081345 147.48610291 -66.82502533 147.46610229 -67.75663757 147.44549561 C-74.64009271 147.52353564 -79.00566471 149.77530288 -84.23046875 154.203125 C-86.08934522 156.12673321 -87.63696791 158.04418838 -89.23046875 160.203125 C-86.16828349 161.49553872 -83.10566497 162.78692265 -80.04296875 164.078125 C-79.17865234 164.44292969 -78.31433594 164.80773437 -77.42382812 165.18359375 C-73.37247996 166.8910585 -69.32204737 168.59360132 -65.23046875 170.203125 C-65.23046875 170.863125 -65.23046875 171.523125 -65.23046875 172.203125 C-82.69693856 180.23576398 -100.17986329 188.23283896 -117.73132324 196.07836914 C-119.30902385 196.78427436 -120.88593529 197.49194612 -122.46203613 198.20141602 C-124.67166514 199.19537976 -126.8841938 200.18257695 -129.09765625 201.16796875 C-129.74828033 201.4620311 -130.39890442 201.75609344 -131.06924438 202.05906677 C-134.45198984 203.55514871 -137.60131819 204.54308402 -141.23046875 205.203125 C-141.44407547 204.63889832 -141.65768219 204.07467163 -141.87776184 203.49334717 C-155.92644255 166.32314657 -155.92644255 166.32314657 -170.40869141 129.32055664 C-171.06380932 127.63254782 -171.65788223 125.92088457 -172.23046875 124.203125 C-168.095016 124.85254923 -164.64642087 126.21016077 -160.8359375 127.92578125 C-159.03286133 128.73305664 -159.03286133 128.73305664 -157.19335938 129.55664062 C-155.93484541 130.12619068 -154.6763825 130.69585355 -153.41796875 131.265625 C-152.14018556 131.83966396 -150.86219278 132.41323661 -149.58398438 132.98632812 C-146.46405348 134.3873537 -143.34634157 135.79310298 -140.23046875 137.203125 C-140.10140137 136.46143066 -139.97233398 135.71973633 -139.83935547 134.95556641 C-139.28550818 132.45192794 -138.57781255 130.47020884 -137.48828125 128.1640625 C-137.14571289 127.42349609 -136.80314453 126.68292969 -136.45019531 125.91992188 C-136.08893555 125.14712891 -135.72767578 124.37433594 -135.35546875 123.578125 C-132.56814971 117.5229992 -130.25621203 111.75700922 -128.99609375 105.171875 C-128.23046875 103.203125 -128.23046875 103.203125 -126.57135391 102.09637165 C-123.60219176 100.96338393 -121.19048503 100.94830317 -118.01068115 100.94242859 C-116.09344742 100.93180138 -116.09344742 100.93180138 -114.13748169 100.92095947 C-112.722839 100.92325339 -111.30819665 100.9257631 -109.89355469 100.9284668 C-108.40170028 100.92411865 -106.90984812 100.91893515 -105.41799927 100.91297913 C-101.36354701 100.89957635 -97.30918792 100.89901279 -93.25471783 100.90154243 C-89.8610593 100.90261312 -86.46741954 100.89772529 -83.07376504 100.892937 C-75.05306867 100.88183346 -67.0324191 100.88140657 -59.01171875 100.88745117 C-50.77080247 100.89346721 -42.53005795 100.88124254 -34.28917098 100.8598811 C-27.19419582 100.84217429 -20.09927483 100.83627869 -13.00427842 100.83951885 C-8.77615845 100.84132038 -4.54816048 100.83881142 -0.32006073 100.82480431 C3.66910153 100.81208528 7.65800064 100.81430063 11.64715958 100.82721519 C13.09819509 100.8295518 14.54924991 100.82695339 16.00026321 100.81859207 C29.26538274 100.74777124 42.17466427 102.51592696 54.76953125 106.828125 C55.88171021 107.20880127 55.88171021 107.20880127 57.01635742 107.59716797 C71.22289213 112.69973833 82.28933854 120.45784079 92.76953125 131.203125 C93.60226562 132.02683594 94.435 132.85054687 95.29296875 133.69921875 C107.20509058 146.0788812 114.33188771 162.53154739 117.76953125 179.203125 C118.02549072 180.37597046 118.02549072 180.37597046 118.28662109 181.57250977 C119.74960547 188.76584137 120.08325709 195.6871533 120.01953125 203.015625 C120.01131348 204.16562988 120.0030957 205.31563477 119.99462891 206.50048828 C119.65732982 232.11708462 112.4323237 257.97695921 94.76953125 277.203125 C94.03347656 278.03070313 93.29742187 278.85828125 92.5390625 279.7109375 C84.00640518 288.81429458 73.87920068 294.9145045 62.70703125 300.265625 C62.08803955 300.5649292 61.46904785 300.8642334 60.83129883 301.17260742 C57.34187582 302.76764946 54.60790026 303.54415211 50.76953125 303.203125 C56.26287566 310.48389166 61.88002509 317.60873866 67.80639648 324.54248047 C71.13337186 328.4377335 74.36078173 332.39641007 77.54296875 336.41015625 C80.42713977 340.0280199 83.34839072 343.61508962 86.26953125 347.203125 C89.76752228 351.50095399 93.25887083 355.80261672 96.70703125 360.140625 C102.02773705 366.81102766 107.48185914 373.37257717 112.9140625 379.95214844 C114.73425685 382.16033159 116.54959514 384.37240703 118.36328125 386.5859375 C123.82665574 393.24858932 129.31733587 399.87621636 134.95703125 406.390625 C139.95560821 412.1676825 144.71268905 418.10890336 149.39453125 424.14453125 C151.49584617 426.85066543 153.6219946 429.53361763 155.76953125 432.203125 C159.22932342 431.58474586 161.34138714 430.220853 164.14453125 428.140625 C166.98786151 426.20622819 168.60010664 425.23570666 172.01953125 424.578125 C175.52218255 425.37418211 177.2401031 426.67369685 179.76953125 429.203125 C181.51610609 432.12647013 182.09658547 434.57640616 182.39453125 437.953125 C182.46929687 438.75234375 182.5440625 439.5515625 182.62109375 440.375 C182.67007812 440.97828125 182.7190625 441.5815625 182.76953125 442.203125 C202.38561892 422.16227953 215.94154201 397.90864289 226.76953125 372.203125 C227.26066406 371.08035156 227.75179688 369.95757812 228.2578125 368.80078125 C233.89090999 355.24995539 236.46723525 340.52844079 239.01953125 326.140625 C239.18267822 325.22619629 239.3458252 324.31176758 239.51391602 323.36962891 C241.64278671 310.83206471 241.97480033 298.38514726 241.95703125 285.703125 C241.956427 284.90599091 241.95582275 284.10885681 241.9552002 283.28756714 C241.83830275 226.43050367 223.40848797 174.84118569 189.76953125 129.203125 C189.1353125 128.33429688 188.50109375 127.46546875 187.84765625 126.5703125 C175.61468194 110.31793234 160.0785966 94.31968499 143.76953125 82.203125 C143.1780127 81.76226562 142.58649414 81.32140625 141.97705078 80.8671875 C110.79869887 57.80097364 75.94987059 40.6777224 37.76953125 33.203125 C36.94105682 33.03796387 36.1125824 32.87280273 35.25900269 32.70263672 C19.89903793 29.69768714 5.09140007 28.54356393 -10.54296875 28.703125 C-11.60564972 28.7083316 -12.66833069 28.71353821 -13.76321411 28.71890259 C-30.18655285 28.81299487 -46.15597666 29.54831859 -62.23046875 33.203125 C-63.0208252 33.37972656 -63.81118164 33.55632813 -64.62548828 33.73828125 C-69.0593821 34.77053073 -73.3963092 36.0116625 -77.72998047 37.40332031 C-79.55289255 37.98639588 -81.38078533 38.55396685 -83.21142578 39.11230469 C-134.17707485 54.66531041 -182.14739433 84.97115099 -215.23046875 127.203125 C-215.23046875 111.75785009 -187.21576523 87.00343817 -176.66796875 76.390625 C-170.47298588 70.23379445 -164.17037854 64.51553382 -157.23046875 59.203125 C-155.76480469 58.02943359 -155.76480469 58.02943359 -154.26953125 56.83203125 C-111.4695186 22.75140781 -55.04558732 0.2744671 0 0 Z " fill="#168CA2" transform="translate(257.23046875,-0.203125)"/>
<path d="M0 0 C1.27815582 -0.00708481 2.55631165 -0.01416962 3.87319946 -0.02146912 C5.28784215 -0.0191752 6.7024845 -0.01666549 8.11712646 -0.01396179 C9.60898087 -0.01830994 11.10083303 -0.02349343 12.59268188 -0.02944946 C16.64713414 -0.04285224 20.70149323 -0.0434158 24.75596333 -0.04088616 C28.14962185 -0.03981547 31.54326161 -0.04470329 34.93691611 -0.04949158 C42.95761249 -0.06059513 50.97826206 -0.06102202 58.9989624 -0.05497742 C67.23987868 -0.04896138 75.4806232 -0.06118605 83.72151017 -0.08254749 C90.81648533 -0.1002543 97.91140633 -0.1061499 105.00640273 -0.10290974 C109.2345227 -0.10110821 113.46252067 -0.10361717 117.69062042 -0.11762428 C121.67978268 -0.13034331 125.66868179 -0.12812796 129.65784073 -0.11521339 C131.10887624 -0.11287679 132.55993106 -0.1154752 134.01094437 -0.12383652 C147.27606389 -0.19465735 160.18534542 1.57349837 172.7802124 5.88569641 C173.89239136 6.26637268 173.89239136 6.26637268 175.02703857 6.65473938 C189.23357328 11.75730974 200.30001969 19.5154122 210.7802124 30.26069641 C211.61294678 31.08440735 212.44568115 31.90811829 213.3036499 32.75679016 C225.21577173 45.13645261 232.34256887 61.5891188 235.7802124 78.26069641 C235.95085205 79.04259338 236.1214917 79.82449036 236.29730225 80.63008118 C237.76028662 87.82341278 238.09393824 94.74472471 238.0302124 102.07319641 C238.02199463 103.22320129 238.01377686 104.37320618 238.00531006 105.55805969 C237.66801097 131.17465603 230.44300485 157.03453062 212.7802124 176.26069641 C212.04415771 177.08827454 211.30810303 177.91585266 210.54974365 178.76850891 C202.01708633 187.87186599 191.88988183 193.97207591 180.7177124 199.32319641 C180.0987207 199.62250061 179.479729 199.92180481 178.84197998 200.23017883 C175.35255697 201.82522087 172.61858141 202.60172353 168.7802124 202.26069641 C174.27355681 209.54146307 179.89070624 216.66631007 185.81707764 223.60005188 C189.14405301 227.49530491 192.37146288 231.45398148 195.5536499 235.46772766 C198.43782092 239.08559131 201.35907187 242.67266103 204.2802124 246.26069641 C207.77820343 250.5585254 211.26955198 254.86018814 214.7177124 259.19819641 C220.03841821 265.86859907 225.49254029 272.43014858 230.92474365 279.00971985 C232.744938 281.217903 234.56027629 283.42997844 236.3739624 285.64350891 C241.83733379 292.30615695 247.32790941 298.93388443 252.9677124 305.44819641 C257.34703099 310.50795829 261.51981982 315.69314786 265.61444092 320.98506165 C269.57445527 326.07322379 273.7437624 330.96433954 277.98529053 335.81929016 C281.68321948 340.06671056 281.68321948 340.06671056 282.7802124 342.26069641 C280.18261177 342.40757931 277.58496303 342.55343609 274.98724365 342.69819641 C274.17774765 342.7433136 273.36825165 342.78843079 272.53422546 342.83491516 C265.40726477 343.22675918 258.27816366 343.55933891 251.1477356 343.88105774 C246.38335125 344.10484988 241.65006004 344.4260683 236.90130615 344.88569641 C225.11271282 345.84671749 225.11271282 345.84671749 221.05462646 343.08735657 C217.68978447 339.90251385 215.35624227 336.16864226 213.00726318 332.20649719 C211.01185484 329.04227027 208.56168536 326.31018501 206.0927124 323.51069641 C202.21356158 318.98524651 198.44131643 314.3874243 194.73724365 309.71772766 C191.87891999 306.12913368 188.96756214 302.58476541 186.05755615 299.03804016 C184.56721038 297.22048297 183.08009747 295.40026893 181.59661865 293.57710266 C177.58687012 288.6524739 173.52724442 283.77864598 169.4052124 278.94819641 C165.60432593 274.48985931 161.93424312 269.95157745 158.3427124 265.32319641 C154.07002201 259.81878087 149.61686948 254.50395351 145.05657959 249.23628235 C141.49806512 245.11993412 138.0592606 240.92662542 134.68255615 236.65913391 C128.22312152 228.51520606 121.54410752 220.54200631 114.934021 212.5202179 C111.00249807 207.7481954 107.08257627 202.96692329 103.1708374 198.17866516 C100.7291845 195.19841235 98.2792306 192.22515237 95.82757568 189.25312805 C93.42399663 186.33794775 91.02443093 183.41947549 88.62493896 180.50093079 C87.37880895 178.98763155 86.13071061 177.47595131 84.88079834 175.96577454 C83.05122117 173.75515365 81.22770812 171.53965647 79.4052124 169.32319641 C78.83963623 168.64297424 78.27406006 167.96275208 77.69134521 167.26191711 C73.7802124 162.48810645 73.7802124 162.48810645 73.7802124 160.26069641 C74.70347824 160.25705078 75.62674408 160.25340515 76.57798767 160.24964905 C85.33025439 160.21159294 94.08215513 160.15454242 102.83416271 160.07679367 C107.33238757 160.03748634 111.83042156 160.00521656 116.32879639 159.98970032 C120.67977647 159.97442236 125.03023124 159.93978313 129.38097572 159.89238739 C131.03088089 159.87768736 132.6808611 159.86966202 134.33083153 159.86881256 C150.13794662 159.8525081 165.06857667 157.05970592 177.15911865 146.03022766 C187.17220939 135.10027561 190.64296897 120.58797772 190.37713623 106.19184875 C190.34259668 104.12878447 190.35661739 102.06998137 190.37591553 100.00679016 C190.3611698 85.98987437 186.25511726 71.98900172 176.5927124 61.44819641 C165.12212894 50.95650301 149.21307351 47.14865367 134.08392334 47.05195618 C133.11253922 47.04217239 132.14115509 47.03238861 131.14033508 47.02230835 C127.93176631 46.99244074 124.72323891 46.97099413 121.5145874 46.95210266 C120.41611732 46.94553083 119.31764725 46.93895901 118.1858902 46.93218803 C112.3724547 46.89963401 106.55903725 46.87517215 100.74554443 46.85566711 C95.94221299 46.83785139 91.13946828 46.80302003 86.33636475 46.75312805 C80.5274269 46.69286665 74.7190332 46.66218362 68.90979767 46.65249443 C66.70104892 46.64395043 64.49231431 46.62515858 62.28374481 46.59575081 C59.18654867 46.55672725 56.09146432 46.55581601 52.99407959 46.56367493 C52.08986771 46.54367432 51.18565582 46.52367371 50.25404358 46.50306702 C43.37058844 46.58110705 39.00501645 48.8328743 33.7802124 53.26069641 C31.92133593 55.18430462 30.37371324 57.10175979 28.7802124 59.26069641 C31.84239766 60.55311013 34.90501618 61.84449406 37.9677124 63.13569641 C38.83202881 63.5005011 39.69634521 63.86530579 40.58685303 64.24116516 C44.6382012 65.94862991 48.68863378 67.65117273 52.7802124 69.26069641 C52.7802124 69.92069641 52.7802124 70.58069641 52.7802124 71.26069641 C35.31374259 79.29333539 17.83081786 87.29041037 0.27935791 95.13594055 C-1.2983427 95.84184577 -2.87525414 96.54951753 -4.45135498 97.25898743 C-6.66098399 98.25295117 -8.87351265 99.24014837 -11.0869751 100.22554016 C-11.73759918 100.51960251 -12.38822327 100.81366486 -13.05856323 101.11663818 C-16.44130868 102.61272012 -19.59063703 103.60065543 -23.2197876 104.26069641 C-23.43339432 103.69646973 -23.64700104 103.13224304 -23.86708069 102.55091858 C-37.9157614 65.38071798 -37.9157614 65.38071798 -52.39801025 28.37812805 C-53.05312817 26.69011923 -53.64720108 24.97845598 -54.2197876 23.26069641 C-50.08433485 23.91012064 -46.63573972 25.26773218 -42.82525635 26.98335266 C-41.62320557 27.52153625 -40.42115479 28.05971985 -39.18267822 28.61421204 C-37.92416426 29.18376209 -36.66570135 29.75342496 -35.4072876 30.32319641 C-34.12950441 30.89723537 -32.85151162 31.47080802 -31.57330322 32.04389954 C-28.45337233 33.44492511 -25.33566042 34.85067439 -22.2197876 36.26069641 C-22.02618652 35.14815491 -22.02618652 35.14815491 -21.82867432 34.01313782 C-21.27482703 31.50949935 -20.5671314 29.52778025 -19.4776001 27.22163391 C-18.96374756 26.1107843 -18.96374756 26.1107843 -18.43951416 24.97749329 C-18.07825439 24.20470032 -17.71699463 23.43190735 -17.3447876 22.63569641 C-14.55746855 16.58057061 -12.24553087 10.81458063 -10.9854126 4.22944641 C-10.2197876 2.26069641 -10.2197876 2.26069641 -8.56067276 1.15394306 C-5.59151061 0.02095534 -3.17980388 0.00587458 0 0 Z " fill="#CAE2EB" transform="translate(139.21978759765625,100.73930358886719)"/>
<path d="M0 0 C0 82.17 0 164.34 0 249 C-16.17 249 -32.34 249 -49 249 C-49 174.09 -49 99.18 -49 22 C-3.16666667 0 -3.16666667 0 0 0 Z " fill="#C9E2EB" transform="translate(192,194)"/>
<path d="M0 0 C0.66 0 1.32 0 2 0 C2 82.17 2 164.34 2 249 C-14.17 249 -30.34 249 -47 249 C-47 174.09 -47 99.18 -47 22 C-45.35 21.67 -43.7 21.34 -42 21 C-42 95.58 -42 170.16 -42 247 C-20.715 247.495 -20.715 247.495 1 248 C0.67 166.16 0.34 84.32 0 0 Z " fill="#BAD5E5" transform="translate(190,194)"/>
<path d="M0 0 C0.66 0 1.32 0 2 0 C2 81.51 2 163.02 2 247 C-13.51 247 -29.02 247 -45 247 C-45 246.67 -45 246.34 -45 246 C-30.48 245.67 -15.96 245.34 -1 245 C-0.67 164.15 -0.34 83.3 0 0 Z " fill="#D6ECF4" transform="translate(189,195)"/>
<path d="M0 0 C25.74 0 51.48 0 78 0 C77.67 1.32 77.34 2.64 77 4 C51.92 4 26.84 4 1 4 C0.67 2.68 0.34 1.36 0 0 Z " fill="#132E59" transform="translate(212,256)"/>
<path d="M0 0 C1.07461739 0.00539291 1.07461739 0.00539291 2.17094421 0.01089478 C2.92211517 0.01074875 3.67328613 0.01060272 4.44721985 0.01045227 C6.94166404 0.01115153 9.43603448 0.01894452 11.9304657 0.02676392 C13.65539509 0.02862805 15.38032501 0.03005197 17.10525513 0.03105164 C21.65418448 0.03487719 26.20308211 0.04470779 30.7519989 0.05575562 C35.39025951 0.06596893 40.02852522 0.07054908 44.66679382 0.07559204 C53.77422967 0.08633003 62.88164192 0.1034069 71.98905945 0.12442017 C71.65905945 0.78442017 71.32905945 1.44442017 70.98905945 2.12442017 C68.66189945 2.49842802 66.32788083 2.83206749 63.98905945 3.12442017 C63.65905945 3.45442017 63.32905945 3.78442017 62.98905945 4.12442017 C60.98573519 4.23428031 58.97851209 4.27354086 56.97221375 4.28555298 C55.03966988 4.29996429 55.03966988 4.29996429 53.06808472 4.31466675 C51.64981767 4.31951484 50.23154857 4.32379364 48.8132782 4.32754517 C47.36697385 4.3332949 45.92066952 4.33905265 44.47436523 4.34481812 C41.43702335 4.3553387 38.39970802 4.36117406 35.36235046 4.36465454 C31.47161857 4.37013387 27.5812376 4.39414502 23.69061565 4.4226265 C20.70088685 4.44126043 17.71124231 4.44645892 14.72146034 4.44799042 C13.28733723 4.45101707 11.8532156 4.4590461 10.4191494 4.4721756 C8.4108663 4.48924579 6.40243902 4.48550962 4.39408875 4.48086548 C3.25126938 4.48451111 2.10845001 4.48815674 0.93099976 4.49191284 C-2.29152495 4.08937095 -3.6550557 3.30068725 -6.01094055 1.12442017 C-4.32590356 -0.56061683 -2.24834171 0.00476033 0 0 Z " fill="#132F5A" transform="translate(205.0109405517578,95.87557983398438)"/>
<path d="M0 0 C0.33 0 0.66 0 1 0 C1.02931979 4.14581819 1.04690557 8.29160925 1.0625 12.4375 C1.07087891 13.60216797 1.07925781 14.76683594 1.08789062 15.96679688 C1.10602151 22.40326202 0.86649876 28.62065875 0 35 C-1.98 35.495 -1.98 35.495 -4 36 C-4.5307827 19.97822582 -4.5307827 19.97822582 -1.734375 13.171875 C-0.30373068 8.94082052 -0.24034098 4.43387676 0 0 Z " fill="#BCDBE8" transform="translate(376,190)"/>
<path d="M0 0 C0.33 0 0.66 0 1 0 C1.02950374 4.08331765 1.04696535 8.1666072 1.0625 12.25 C1.07087891 13.38953125 1.07925781 14.5290625 1.08789062 15.703125 C1.13372293 31.83609562 1.13372293 31.83609562 0 38 C-0.99 38.495 -0.99 38.495 -2 39 C-2.21926139 34.89316881 -2.41563795 30.78590265 -2.59204102 26.67700195 C-2.65496591 25.28315922 -2.72383804 23.88957043 -2.79907227 22.49633789 C-3.23214294 14.3958818 -3.26008992 7.56776659 0 0 Z " fill="#142F59" transform="translate(379,174)"/>
<path d="M0 0 C23.76 0 47.52 0 72 0 C72 0.33 72 0.66 72 1 C49.23 1 26.46 1 3 1 C3.66 1.99 4.32 2.98 5 4 C4.67 4.99 4.34 5.98 4 7 C0 2.25 0 2.25 0 0 Z " fill="#BED9E5" transform="translate(213,261)"/>
<path d="M0 0 C-1.09431458 1.48445129 -1.09431458 1.48445129 -3 3 C-5.90434265 3.32279968 -5.90434265 3.32279968 -9.4909668 3.2487793 C-10.1448941 3.23946381 -10.79882141 3.23014832 -11.4725647 3.22055054 C-13.63197853 3.18620079 -15.79026922 3.13030683 -17.94921875 3.07421875 C-19.44706335 3.04618357 -20.94493369 3.01949337 -22.44282532 2.99409485 C-26.38379272 2.92365315 -30.32414534 2.83493359 -34.26464844 2.74243164 C-38.2862468 2.65125272 -42.30815793 2.57732412 -46.33007812 2.50195312 C-54.22046124 2.35153861 -62.11027835 2.18181764 -70 2 C-70 1.67 -70 1.34 -70 1 C-61.75906927 0.86905959 -53.51813067 0.7386309 -45.27718163 0.60884857 C-41.45024598 0.54856426 -37.62331325 0.48810623 -33.79638672 0.42724609 C-30.10056823 0.36847746 -26.40474269 0.31017183 -22.7089119 0.25218201 C-21.30157843 0.23001971 -19.89424755 0.20769292 -18.4869194 0.18519592 C-16.51000404 0.15362233 -14.53307835 0.12269727 -12.55615234 0.09179688 C-10.87070816 0.06514954 -10.87070816 0.06514954 -9.1512146 0.03796387 C-6.10044593 0.00121011 -3.05095484 -0.00675777 0 0 Z " fill="#D4ECF4" transform="translate(291,261)"/>
<path d="M0 0 C0.3689719 7.31110994 -0.18447274 13.21256822 -3 20 C-3.33 20 -3.66 20 -4 20 C-4.08069658 17.04112541 -4.14034665 14.0844341 -4.1875 11.125 C-4.21263672 10.28324219 -4.23777344 9.44148437 -4.26367188 8.57421875 C-4.27333984 7.76855469 -4.28300781 6.96289062 -4.29296875 6.1328125 C-4.3086792 5.38918457 -4.32438965 4.64555664 -4.34057617 3.87939453 C-4.22818604 3.25919434 -4.1157959 2.63899414 -4 2 C-1 0 -1 0 0 0 Z " fill="#D0EBF6" transform="translate(376,190)"/>
<path d="M0 0 C2 2 2 2 2.4375 4.375 C2 7 2 7 -0.5 9.3125 C-1.7375 10.1478125 -1.7375 10.1478125 -3 11 C-2.01 7.37 -1.02 3.74 0 0 Z " fill="#B7D3E1" transform="translate(328,224)"/>
<path d="M0 0 C0.33 0 0.66 0 1 0 C1 3.3 1 6.6 1 10 C0.01 10 -0.98 10 -2 10 C-1.85950482 8.52031676 -1.71245174 7.04125484 -1.5625 5.5625 C-1.48128906 4.73878906 -1.40007812 3.91507813 -1.31640625 3.06640625 C-1 1 -1 1 0 0 Z " fill="#D5EBF2" transform="translate(115,187)"/>
<path d="M0 0 C0.66 0 1.32 0 2 0 C4.42857143 6.28571429 4.42857143 6.28571429 3 10 C1.5 8.9375 1.5 8.9375 0 7 C-0.1875 3.3125 -0.1875 3.3125 0 0 Z " fill="#294973" transform="translate(326,183)"/>
<path d="M0 0 C-0.66 0.474375 -1.32 0.94875 -2 1.4375 C-2.99 2.2109375 -2.99 2.2109375 -4 3 C-4 3.33 -4 3.66 -4 4 C-6.31 4 -8.62 4 -11 4 C-9.71264403 1.42528807 -8.71510189 1.29583343 -6.0625 0.3125 C-5.35222656 0.04050781 -4.64195312 -0.23148437 -3.91015625 -0.51171875 C-2 -1 -2 -1 0 0 Z " fill="#1B7994" transform="translate(300,496)"/>
<path d="M0 0 C0.33 0.66 0.66 1.32 1 2 C-1.31 2.66 -3.62 3.32 -6 4 C-6.33 3.01 -6.66 2.02 -7 1 C-4.53721199 -0.231394 -2.7204945 -0.07159196 0 0 Z " fill="#B8D7E1" transform="translate(319,298)"/>
<path d="M0 0 C-1.75 2.0625 -1.75 2.0625 -4 4 C-6.25 3.75 -6.25 3.75 -8 3 C-7.34 2.67 -6.68 2.34 -6 2 C-6.33 1.34 -6.66 0.68 -7 0 C-2.25 -1.125 -2.25 -1.125 0 0 Z " fill="#C0DCEA" transform="translate(296,260)"/>
<path d="M0 0 C0.99 0.33 1.98 0.66 3 1 C3 3.31 3 5.62 3 8 C2.01 8.495 2.01 8.495 1 9 C0.67 6.03 0.34 3.06 0 0 Z " fill="#D8EEF5" transform="translate(329,223)"/>
<path d="M0 0 C0.99 0.33 1.98 0.66 3 1 C2.1875 4.4375 2.1875 4.4375 1 8 C0.01 8.33 -0.98 8.66 -2 9 C-1.34 6.03 -0.68 3.06 0 0 Z " fill="#B6D3E2" transform="translate(129,103)"/>
<path d="M0 0 C2 1 2 1 4 4 C3 5 3 5 0.4375 5.0625 C-0.7690625 5.0315625 -0.7690625 5.0315625 -2 5 C-1.34 3.35 -0.68 1.7 0 0 Z " fill="#D1EAF3" transform="translate(296,259)"/>
<path d="M0 0 C0.66 0.33 1.32 0.66 2 1 C2 2.65 2 4.3 2 6 C1.01 6.495 1.01 6.495 0 7 C-0.66 5.35 -1.32 3.7 -2 2 C-1.34 1.34 -0.68 0.68 0 0 Z " fill="#102A54" transform="translate(370,250)"/>
<path d="M0 0 C0.66 0 1.32 0 2 0 C1.34 2.97 0.68 5.94 0 9 C-0.33 9 -0.66 9 -1 9 C-1.09765625 2.84765625 -1.09765625 2.84765625 -1 1 C-0.67 0.67 -0.34 0.34 0 0 Z " fill="#122F5A" transform="translate(101,171)"/>
<path d="M0 0 C0.66 0 1.32 0 2 0 C2 2.31 2 4.62 2 7 C1.01 7 0.02 7 -1 7 C-1.04254356 5.00045254 -1.04080783 2.99958364 -1 1 C-0.67 0.67 -0.34 0.34 0 0 Z " fill="#D1E9F1" transform="translate(365,376)"/>
</svg>
